<svg version="1.0" xmlns="http://www.w3.org/2000/svg" width="800.000000" height="800.000000" viewBox="0 0 800.000000 800.000000" preserveAspectRatio="xMidYMid meet">
    <metadata>
        <rdf:RDF xmlns:rdf="http://www.w3.org/1999/02/22-rdf-syntax-ns#" xmlns:rdfs="http://www.w3.org/2000/01/rdf-schema#" xmlns:dc="http://purl.org/dc/elements/1.1/">
            <rdf:Description dc:format="image/svg+xml" dc:Label="1" dc:ContentProducer="001191330110MACRLGPT8B00000" dc:ProduceID="386960386" dc:ReservedCode1="wv2fX38MWt34eQCrvXACDTuRaoh3+Nvzog1hVMy763w=" dc:ContentPropagator="001191330110MACRLGPT8B00000" dc:PropagateID="386960386" dc:ReservedCode2="wv2fX38MWt34eQCrvXACDTuRaoh3+Nvzog1hVMy763w="/>
        </rdf:RDF>
    </metadata>
    <g transform="translate(0.000000,800.000000) scale(0.100000,-0.100000)" fill="#000000" stroke="none">
        <path d="M3818 6494 c-63 -19 -149 -98 -179 -166 l-24 -53 0 -655 c0 -641 0 -656 -20 -690 -17 -29 -50 -50 -195 -126 -435 -226 -752 -454 -1051 -753 -295 -295 -508 -620 -617 -942 -62 -181 -76 -262 -76 -434 0 -189 21 -283 99 -440 132 -266 369 -441 684 -505 95 -19 137 -20 994 -20 543 0 906 4 921 10 48 18 51 44 12 108 -72 117 -69 93 -76 657 -6 488 -7 513 -28 583 -83 274 -294 485 -562 562 -115 33 -290 38 -402 11 -257 -61 -443 -218 -561 -472 -47 -101 -81 -139 -143 -159 -98 -33 -210 37 -228 142 -20 112 108 361 273 531 173 179 433 315 664 346 392 54 760 -75 1033 -360 44 -47 99 -112 121 -144 58 -86 126 -227 157 -323 51 -164 56 -219 56 -684 l0 -429 25 -25 25 -25 388 3 c422 3 408 1 438 60 12 23 16 83 19 274 6 337 12 366 135 674 91 229 140 376 172 520 l23 105 0 1310 0 1310 -30 54 c-73 132 -227 192 -371 145 -42 -14 -71 -39 -200 -170 l-151 -154 -383 0 -383 0 -156 154 c-141 138 -163 156 -211 170 -65 19 -129 19 -192 0z"/>
    </g>
</svg>